<svg preserveAspectRatio="none" width="100%" height="100%" overflow="visible" style="display: block;" viewBox="0 0 16 16" fill="none" xmlns="http://www.w3.org/2000/svg">
<g id="Moon" clip-path="url(#clip0_0_8)">
<path id="Vector" d="M15.2655 10.0657C14.781 11.6475 13.8099 13.0361 12.4905 14.034C11.3321 14.9058 9.95367 15.4376 8.50986 15.5695C7.06605 15.7015 5.61403 15.4284 4.3168 14.7809C3.01957 14.1335 1.92846 13.1373 1.16594 11.9042C0.403426 10.6711 -0.000314411 9.24982 3.67062e-05 7.79999C-0.00517607 6.10773 0.544956 4.4605 1.56604 3.11099C2.56394 1.79159 3.95256 0.820526 5.53429 0.335993C5.63854 0.303893 5.74956 0.300819 5.85543 0.327102C5.96129 0.353385 6.05799 0.40803 6.13512 0.48516C6.21225 0.56229 6.2669 0.658987 6.29318 0.764852C6.31946 0.870717 6.31639 0.981744 6.28429 1.08599C5.93842 2.23006 5.90942 3.44654 6.20038 4.60579C6.49134 5.76504 7.09136 6.82364 7.9365 7.66878C8.78164 8.51392 9.84024 9.11394 10.9995 9.4049C12.1587 9.69586 13.3752 9.66686 14.5193 9.32099C14.6235 9.28889 14.7346 9.28582 14.8404 9.3121C14.9463 9.33838 15.043 9.39303 15.1201 9.47016C15.1973 9.54729 15.2519 9.64399 15.2782 9.74985C15.3045 9.85572 15.3014 9.96674 15.2693 10.071L15.2655 10.0657Z" fill="var(--fill-0, #EF2300)"/>
</g>
<defs>
<clipPath id="clip0_0_8">
<rect width="16" height="16" fill="white"/>
</clipPath>
</defs>
</svg>
