<svg viewBox="0 0 345 764" fill="none" xmlns="http://www.w3.org/2000/svg" preserveAspectRatio="none">
<path id="Subtract" d="M345 747.778C345 756.737 337.737 764 328.777 764H16.2227C7.26347 764 0.000159004 756.737 0 747.778V570.751C1.40377 572.809 1.94053 575.415 2.35352 577.526L3.60449 583.896L4.84277 592.849L5.13477 597.786L5.87793 604.63C6.20272 604.816 7.40312 604.429 7.38281 604.096L7.30859 602.878L10.8379 585.53L11.8564 573.344L14.4854 562.018L17.2188 554.944C24.439 546.801 31.8661 543.329 41.543 539.345L60.8945 531.372L65.5244 529.415L65.5098 529.419L73.5479 526.155L77.499 524.478C79.5847 523.593 81.3002 522.615 82.7285 520.578L73.6494 522.125L60.0225 525.12L41.4482 528.581C38.5527 529.116 36.0511 529.339 33.1123 529.292C29.4819 529.235 25.4492 529.551 22.3311 527.401C19.9199 525.743 19.6021 522.569 19.4062 519.881C19.2276 517.395 18.8268 514.852 19.1816 512.422L20.2988 504.765L20.7412 500.604L21.6094 495.185L22.3164 490.229C22.4346 490.025 22.5568 489.821 22.6846 489.618C24.707 486.41 25.793 482.766 27.5684 479.457L37.2988 461.325C39.3516 457.501 43.6355 452.564 48.0869 453.672C52.6152 455.109 55.2418 459.585 57.1709 462.965L61.3223 470.229L66.5449 480.601L68.9648 486.445L72.7188 494.44C73.1787 494.561 74.4268 493.71 74.2627 493.315L73.6641 491.873L70.5137 469.874L66.582 454.887L64.9062 440.417L65.1445 431.032C70.2058 418.92 77.4753 412.362 87.1748 404.465L106.569 388.666L109.023 386.625C109.692 386.487 110.732 385.749 111.096 385.438L117.829 379.624L166.776 342.722L187.296 328.477L212.557 312.394C220.165 307.545 228.733 306.842 237.374 306.031C251.418 304.719 265.057 307.919 275.547 318.462L289.014 331.997L298.695 341.119L316.465 359.06C323.854 366.522 339.069 381.402 338.451 376.506L338.069 373.523L319.167 344.242C309.128 324.657 295.75 297.076 299.328 276.746C300.833 268.181 310.594 259.184 317.61 255.563L327.018 250.715L336.736 246.284C339.453 245.047 342.218 243.969 345 242.959V747.778ZM0 432.233C8.80788 434.836 18.3143 438.599 23.2881 444.723C26.0342 448.102 26.4709 454.753 25.7227 458.6L24.7168 463.755L23.4629 468.892C22.0354 474.726 19.3839 480.002 18.4482 485.933L17.5771 491.453L12.2021 505.234L8.17969 514.511L2.93848 525.457C2.18243 527.038 1.1594 528.356 0 529.546V432.233ZM328.777 0C337.737 0 345 7.2625 345 16.2217V96.7412L338.703 99.8242C335.872 101.21 331.208 102.317 328.916 99.8135C326.711 97.0857 326.923 93.3694 327.116 90.5859L327.528 84.6016L328.552 76.3506L329.45 71.9189L330.407 65.6709C330.173 65.4088 329.055 65.3877 328.994 65.6865L328.773 66.7812L321.713 80.9814L318.005 91.3994L313.117 100.574L309.128 105.974C301.049 110.962 293.881 111.776 284.666 112.363L266.235 113.541L261.814 113.866H261.828L254.184 114.313L250.41 114.599C248.418 114.748 246.721 115.089 245.023 116.451L253.159 117.83L265.527 119.306L282.241 121.864C284.846 122.267 287.04 122.825 289.546 123.753C292.642 124.899 296.169 125.837 298.339 128.67C300.018 130.857 299.552 133.746 299.094 136.171C298.668 138.412 298.42 140.771 297.551 142.803L295.831 146.818L273.87 170.614L255.906 195.552L235.661 216.273L220.717 227.618C194.922 234.738 174.758 231.424 149.181 225.94L98.0273 214.984L85.7246 212.471L85.7607 212.481L64.5752 207.826L54.0684 205.699C48.5216 204.573 43.6343 204.186 37.9775 206.52L59.1289 216.417L91.751 229.811L135.41 249.416C142.211 252.481 147.774 255.649 153.91 260.04C161.491 265.463 170.403 270.663 174.188 279.875C177.12 286.99 173.671 294.335 170.595 300.45C167.746 306.1 165.29 312.198 161.388 316.95L149.092 331.921L142.764 340.296L133.896 350.78L124.753 361.99L116.038 372.492L113.2 375.867L102.914 381.425L82.5342 391.547C79.3554 393.12 76.5079 394.189 73.0332 395.075C68.7411 396.171 64.1339 397.845 59.5635 396.259C56.0308 395.037 54.3215 391.321 52.96 388.149C51.7041 385.217 50.1622 382.286 49.5566 379.249L47.6484 369.679L46.418 364.534L45.1582 357.733L43.71 350.593L42.3984 343.846L40.9658 336.235L39.3916 336.394C39.0993 336.425 39.0361 337.413 39.0459 337.727L39.2012 342.186L38.3271 372.841L37.5029 385.291L35.9473 400.14C35.4804 404.614 33.1783 408.093 30.8955 411.635C27.1832 417.389 21.9082 421.51 14.835 422.029L5.75391 422.695L0 423.314V16.2217C0.000130394 7.26251 7.26345 0 16.2227 0H328.777ZM322.316 131.603C326.961 129.778 331.902 129.559 336.478 132.201L342.352 135.594L345 137.009V227.042L306.013 233.843C297.246 235.371 283.691 234.759 279.325 226.332C275.366 217.373 278.746 207.626 281.37 200.353L287.003 184.714L296.009 163.497L301.803 152.368L302.944 149.883L307.458 144.283L314.495 136.232C316.614 133.806 319.459 132.727 322.316 131.603ZM345 126.067C342.67 122.545 340.898 118.87 340.552 115.386C340.241 112.263 342.693 108.185 344.729 106.243L345 105.983V126.067Z" fill="#F7F3E7"/>
</svg>
