<svg viewBox="0 0 1120 732" fill="none" xmlns="http://www.w3.org/2000/svg" preserveAspectRatio="none">
<path id="Subtract" d="M1111.97 196.865C1114.66 196.758 1117.34 196.844 1120 196.973V707.5C1120 720.755 1109.25 731.5 1096 731.5H24C10.7452 731.5 0 720.755 0 707.5V529.177C0.43624 529.265 0.807346 529.255 0.9375 529.075L2.27441 527.236L28.1709 506.289L44.1777 489.901L61.5742 476.594L74.0703 469.534C94.5558 466.061 109.797 469.553 129.018 474.879L167.459 485.522L176.716 487.997L176.689 487.988L192.599 492.479L200.506 494.579C204.679 495.69 208.409 496.245 212.969 494.943L197.542 486.789L173.584 475.522L141.667 459.269C136.697 456.729 132.688 454.189 128.345 450.762C122.979 446.528 116.567 442.374 114.455 435.712C112.816 430.566 116.112 425.631 119.014 421.535C121.7 417.752 124.122 413.631 127.541 410.536L138.313 400.787L143.917 395.301L151.659 388.487L158.601 382.162C159.023 382.002 159.451 381.848 159.885 381.701C166.724 379.393 172.68 375.386 179.27 372.65L215.382 357.662C222.999 354.501 235.281 352.289 240.627 358.975C245.698 366.222 244.308 375.674 243.179 382.747L240.761 397.953L236.254 418.863L232.93 430.048L229.047 445.854C229.592 446.554 232.474 446.756 232.696 446L233.513 443.238L254.94 407.952L266.865 381.872L281.553 359.116L293.062 345.873C315.032 334.215 333.706 333.083 357.61 332.8L405.416 332.223L411.512 332.09C412.675 332.656 415.113 332.781 416.028 332.748L433.017 332.074L550.134 334.894L597.778 337.84L654.7 343.561C671.851 345.276 685.513 354.062 699.411 362.773C721.992 376.941 738.605 397.144 741.777 424.322L745.849 459.216L749.502 483.422L754.781 529.578C756.975 548.775 762.064 587.603 766.958 579.843L769.931 575.111L776.433 511.328C784.681 471.642 797.432 416.623 826.947 391.435C839.377 380.82 864.68 379.024 879.485 381.832L899.329 385.604L919.142 390.335C941.645 395.719 962.218 405.818 985.006 409.311L1034.08 416.819C1024.48 403.293 1010.94 400.678 998.357 392.961C985.776 385.244 971.689 381.136 958.764 374.37L887.938 337.289C872.999 329.466 853.437 313.086 856.917 295.956C861.637 278.525 878.279 268.352 890.851 260.878L917.866 244.798L956.562 224.538L978.458 215.135L983.125 212.858L996.531 209.957L1016.63 206.408C1022.69 205.336 1028.23 207.033 1033.84 208.682C1042.96 211.365 1050.62 216.701 1054.33 225.737L1059.09 237.34L1062.68 245.308L1068.94 260.665C1071.54 267.052 1077.04 279.909 1077.97 276.767L1078.53 274.852L1074.62 252.293C1073.62 237.849 1072.7 217.697 1080.41 206.177C1083.65 201.323 1092.17 198.253 1097.53 197.784L1104.71 197.159L1111.97 196.865ZM8.92188 460.207C15.8066 459.65 26.1919 460.869 28.8213 467.015C31.0907 473.51 27.639 480.127 24.9844 485.06L19.2852 495.665L10.501 509.974L5.07031 517.416L0 525.147V460.93L8.92188 460.207ZM8.4043 382.252C14.4304 396.531 22.3321 416.595 17.8066 430.601C15.9023 436.501 7.60084 442.222 1.88184 444.344L0 445.041V367.152L8.4043 382.252ZM539.1 29.9043L572.015 86.4941L614.066 164.649C620.603 176.84 625.165 187.764 629.132 201.104C634.035 217.581 641.196 235.26 635.913 252.854C631.848 266.455 617.956 273.091 606.084 278.38C595.106 283.258 584.184 289.235 572.695 291.616L536.5 299.117L517.074 303.942L491.341 308.904L464.335 314.595L438.809 319.754L430.549 321.37L408.549 317.614L366.015 308.889C359.388 307.519 353.854 305.805 347.601 303.108C339.874 299.779 330.989 296.921 326.033 289.411C322.197 283.613 324.053 276.306 325.784 270.182C327.389 264.522 328.564 258.539 331.268 253.472L339.784 237.508L344.056 228.688L350.25 217.455L356.569 205.515L362.625 194.297L369.524 181.701L366.979 180.127C366.503 179.839 365.234 181.19 364.877 181.652L359.81 188.251L322.073 231.401L306.045 248.391L286.069 267.997C280.054 273.907 272.474 276.286 264.849 278.776C252.454 282.819 239.661 282.722 228.456 275.382L214.07 265.958L203.832 259.732L184.837 247.227C176.938 242.025 160.757 231.749 162.138 236.023L162.984 238.627L184.913 261.097C197.241 276.657 213.919 298.725 214.14 317.73C214.235 325.737 206.986 335.814 201.294 340.499L193.662 346.776L185.68 352.74C176.609 359.511 166.372 364.076 157.924 371.548L150.065 378.5L125.635 392.203L108.592 400.967L87.7373 410.737C81.4556 413.684 74.7948 413.676 68.0693 413.739C57.1395 413.838 46.9134 410.804 39.7529 402.821L30.5605 392.572L23.8984 385.631L11.7744 372.051C8.65726 368.558 3.48341 362.91 0 359.924V24C8.35978e-06 10.7452 10.7452 3.54342e-07 24 0H523.62L539.1 29.9043ZM1096 0C1109.25 8.24649e-06 1120 10.7452 1120 24V122.951L1093.09 135.088L1075.16 145.852L1056.94 153.477L1044.56 156.692C1026.54 154.638 1014.84 147.615 1000.35 137.923L971.36 118.547L964.356 113.961L964.376 113.976L952.403 105.88L946.416 101.975C943.256 99.9114 940.309 98.4636 936.149 98.4844L946.689 109.771L963.45 126.039L985.428 148.834C988.848 152.392 991.469 155.706 994.117 159.908C997.39 165.098 1001.55 170.482 1001.44 177.043C1001.35 182.113 997.219 185.741 993.651 188.71C990.351 191.451 987.176 194.563 983.46 196.495L976.114 200.313L914.966 209.475L858.44 224.85L803.511 231.545L767.661 230.795C720.59 211.554 694.344 183.728 662.576 146.585L599.027 72.3174L583.599 54.6309L583.64 54.6855L557.462 23.7578L544.263 8.68066C541.449 5.46281 538.652 2.54314 535.577 0H1096ZM1120 186.686L1096.13 181.651C1090.25 180.409 1081.95 176.673 1081.5 170.446C1081.44 163.996 1086.17 158.885 1089.77 155.098L1097.5 146.951L1108.83 136.236L1115.45 130.882L1120 126.818V186.686Z" fill="#F7F3E7"/>
</svg>
