<svg viewBox="0 0 584 881" fill="none" xmlns="http://www.w3.org/2000/svg" preserveAspectRatio="none">
<path id="Subtract" d="M584 863.833C584 872.792 576.737 880.056 567.777 880.056H16.2227C7.26337 880.056 0 872.792 0 863.833V725.029L15.3105 713.984C19.4917 710.968 26.6214 707.788 30.7578 710.863C34.8032 714.309 35.239 720.035 35.5107 724.334L36.0996 733.574L36.1953 746.463L35.6943 753.497L35.4795 763.312C35.9034 763.637 37.6748 763.311 37.707 762.836L37.8271 761.1L46.0264 737.223L49.7207 720.178L55.5332 704.646L60.708 695.151C72.4245 684.971 83.568 681.436 97.9893 677.591L126.829 669.896L133.737 667.984L133.717 667.988L145.688 664.86L151.583 663.219C154.696 662.354 157.304 661.288 159.701 658.671L146.576 659.179L126.752 660.895L99.8457 662.354C95.6523 662.575 92.0737 662.427 87.9268 661.817C82.8036 661.065 77.0438 660.765 73.0322 657.148C69.9288 654.357 70.0667 649.811 70.2871 645.973C70.4942 642.425 70.3964 638.755 71.3477 635.384L74.3457 624.763L75.7383 618.963L77.9697 611.458L79.8838 604.585C80.0897 604.316 80.3033 604.05 80.5225 603.786C83.9755 599.624 86.1831 594.671 89.3057 590.32L106.42 566.48C110.03 561.452 117.002 555.262 123.092 557.652C129.229 560.522 132.115 567.338 134.218 572.475L138.743 583.514L144.211 599.146L146.552 607.859L150.382 619.859C151.01 620.115 152.934 619.14 152.774 618.553L152.192 616.404L151.808 584.712L149.02 562.792L149.326 542.021L151.398 528.794C160.796 512.602 172.29 504.673 187.467 495.3L217.813 476.547L221.66 474.116C222.631 474.045 224.238 473.192 224.811 472.818L235.409 465.844L311.448 422.714L343.101 406.365L381.794 388.297C393.449 382.847 405.697 383.437 418.066 383.889C438.168 384.631 456.864 391.678 469.747 408.527L486.286 430.16L498.289 444.849L520.1 473.505C529.169 485.424 547.931 509.281 547.962 502.241L547.975 497.954L526.661 453.053C516.088 423.5 502.271 382.023 511.091 353.937C514.802 342.104 530.27 331.187 540.861 327.365L555.061 322.248L569.623 317.78C574.376 316.324 579.184 315.189 584 314.156V863.833ZM0 676.12C4.37771 680.717 7.90807 685.721 9.16992 690.889C10.308 695.543 7.28319 702.535 4.47266 706.144L0.703125 710.979L0 711.802V676.12ZM567.777 0C576.737 0 584 7.26337 584 16.2227V73.7422L578.957 81.251L571.785 95.2959L563.176 107.367L556.539 114.264C544.191 119.823 533.904 119.648 520.764 118.773L494.483 117.03L488.173 116.674L488.191 116.676L477.3 115.894L471.91 115.599C469.065 115.441 466.602 115.611 463.949 117.223L475.199 120.677L492.416 125.051L515.578 131.76C519.187 132.811 522.186 134.007 525.558 135.783C529.724 137.976 534.537 139.955 537.082 144.362C539.052 147.765 537.859 151.765 536.763 155.109C535.746 158.2 534.958 161.49 533.353 164.202L530.18 169.562L494.724 199.149L464.708 231.09L432.246 256.648L409.015 269.925C371.222 275.221 343.32 266.807 308.167 254.321L237.859 229.366L220.927 223.537L220.976 223.558L191.88 213.056L177.416 208.104C169.781 205.485 162.941 204.036 154.511 206.289L182.589 224.197L226.243 249.172L284.353 284.971C293.402 290.563 300.684 296.072 308.549 303.416C318.266 312.486 329.906 321.487 333.554 335.214C336.385 345.818 330.148 355.568 324.667 363.646C319.593 371.107 314.994 379.277 308.597 385.274L288.439 404.17L277.94 414.841L263.462 428.028L248.46 442.188L234.193 455.426L229.555 459.676L213.984 465.632L183.293 476.174C178.507 477.81 174.283 478.797 169.206 479.407C162.934 480.163 156.109 481.677 149.939 478.589C145.17 476.208 143.44 470.637 142.102 465.9C140.868 461.521 139.23 457.092 138.936 452.685L138.008 438.799L137.218 431.296L136.694 421.447L135.968 411.081L135.361 401.297L134.744 390.271L132.487 390.203C132.068 390.194 131.796 391.579 131.752 392.024L131.146 398.359L124.241 441.546L120.773 458.999L115.825 479.709C114.338 485.949 110.44 490.444 106.557 495.029C100.243 502.479 92.0209 507.331 81.9229 506.757L68.957 506.019L59.9219 505.814L42.7773 504.799C35.6469 504.376 21.1927 503.763 23.7852 506.074L25.3662 507.479L48.3652 513.99C62.4649 519.598 81.9467 527.861 89.6777 540.411C92.9361 545.697 92.3244 555.182 90.5547 560.483L88.1787 567.589L85.4551 574.621C82.3573 582.608 77.6331 589.576 75.2129 597.79L72.9619 605.43L62.8076 623.929L55.4053 636.303L45.9678 650.812C43.1265 655.185 38.8625 657.738 34.5859 660.364C27.6341 664.629 19.8825 666.544 12.1143 663.988L2.1416 660.706L0 660.08V16.2227C0 7.26337 7.26337 0 16.2227 0H567.777ZM570.446 152.943C575.024 151.802 579.655 151.685 584 153.07V292.137L528.48 294.506C515.801 295.046 496.746 291.673 492.13 278.948C488.188 265.547 494.771 252.388 499.827 242.589L510.686 221.517L527.347 193.18L537.598 178.515L539.673 175.209L547.09 168.128L558.531 158.045C561.977 155.005 566.198 154.004 570.446 152.943ZM584 103.678C583.948 102.896 583.954 102.113 584 101.34V103.678Z" fill="#F7F3E7"/>
</svg>
