<svg viewBox="0 0 1280 836" fill="none" xmlns="http://www.w3.org/2000/svg" preserveAspectRatio="none">
<path id="Subtract" d="M1270.82 224.989C1273.9 224.866 1276.96 224.964 1280 225.111V812C1280 825.255 1269.25 836 1256 836H24C10.7452 836 0 825.255 0 812V604.772C0.498404 604.873 0.922557 604.863 1.07129 604.657L2.59863 602.556L32.1953 578.616L50.4893 559.888L70.3701 544.679L84.6523 536.611C108.065 532.642 125.483 536.633 147.449 542.72L191.383 554.884L201.961 557.712L201.931 557.701L220.113 562.833L229.149 565.233C233.919 566.503 238.182 567.137 243.394 565.649L225.762 556.331L198.382 543.455L161.905 524.879C156.225 521.976 151.643 519.075 146.68 515.157C140.547 510.319 133.22 505.57 130.806 497.957C128.932 492.076 132.699 486.436 136.016 481.755C139.086 477.431 141.854 472.721 145.762 469.185L158.073 458.043L164.478 451.772L173.325 443.985L181.257 436.758C181.74 436.574 182.23 436.397 182.727 436.229C190.543 433.592 197.349 429.013 204.88 425.887L246.151 408.758C254.857 405.145 268.892 402.616 275.002 410.258C280.797 418.54 279.209 429.342 277.919 437.426L275.155 454.804L270.004 478.701L266.205 491.483L261.768 509.548C262.39 510.348 265.686 510.579 265.939 509.715L266.872 506.559L291.36 466.231L304.989 436.426L321.774 410.419L334.928 395.283C360.037 381.96 381.379 380.667 408.698 380.343L463.332 379.683L470.299 379.531C471.629 380.179 474.415 380.321 475.461 380.283L494.876 379.515L628.725 382.735L683.175 386.103L748.229 392.641C767.83 394.601 783.444 404.642 799.328 414.599C825.135 430.79 844.121 453.88 847.746 484.94L852.398 524.818L856.573 552.482L862.607 605.232C865.114 627.171 870.93 671.547 876.523 662.678L879.921 657.271L887.352 584.376C896.778 539.021 911.351 476.141 945.083 447.354C959.289 435.223 988.206 433.17 1005.13 436.38L1027.8 440.691L1050.45 446.098C1076.17 452.251 1099.68 463.793 1125.72 467.784L1181.8 476.366C1170.83 460.908 1155.36 457.918 1140.98 449.099C1126.6 440.279 1110.5 435.584 1095.73 427.852L1014.79 385.474C997.713 376.534 975.357 357.813 979.334 338.236C984.728 318.315 1003.75 306.688 1018.12 298.146L1048.99 279.769L1093.21 256.615L1118.24 245.869L1123.57 243.268L1138.89 239.951L1161.87 235.896C1168.79 234.67 1175.12 236.609 1181.53 238.493C1191.96 241.559 1200.7 247.658 1204.94 257.985L1210.39 271.245L1214.49 280.353L1221.65 297.903C1224.62 305.203 1230.9 319.896 1231.96 316.306L1232.61 314.117L1228.13 288.335C1227 271.828 1225.94 248.797 1234.75 235.631C1238.46 230.084 1248.19 226.576 1254.32 226.04L1262.52 225.325L1270.82 224.989ZM10.1973 525.951C18.0659 525.314 29.9352 526.707 32.9395 533.732C35.5328 541.155 31.5884 548.718 28.5547 554.354L22.04 566.475L12.001 582.828L5.79492 591.333L0 600.169V526.777L10.1973 525.951ZM9.60547 436.86C16.4924 453.179 25.5227 476.109 20.3506 492.115C18.1742 498.859 8.68736 505.397 2.15137 507.822L0 508.619V419.603L9.60547 436.86ZM616.114 34.1768L653.73 98.8516L701.79 188.171C709.26 202.103 714.475 214.588 719.008 229.833C724.612 248.665 732.797 268.868 726.759 288.977C722.113 304.52 706.236 312.105 692.668 318.149C680.121 323.725 667.639 330.554 654.509 333.275L613.143 341.849L590.942 347.362L561.533 353.034L530.669 359.537L501.496 365.434L492.057 367.281L466.913 362.988L418.303 353.016C410.729 351.45 404.405 349.492 397.258 346.41C388.427 342.605 378.274 339.339 372.609 330.756C368.224 324.129 370.347 315.778 372.325 308.779C374.16 302.311 375.502 295.474 378.592 289.683L388.325 271.438L393.206 261.359L400.286 248.521L407.508 234.874L414.429 222.055L422.313 207.659L419.404 205.859C418.861 205.53 417.411 207.075 417.003 207.604L411.212 215.145L368.084 264.46L349.767 283.876L326.937 306.282C320.061 313.037 311.399 315.755 302.684 318.602C288.518 323.221 273.898 323.111 261.093 314.723L244.652 303.952L232.951 296.837L211.242 282.545C202.214 276.6 183.72 264.855 185.301 269.742L186.269 272.717L211.329 298.396C225.418 316.18 244.479 341.4 244.73 363.121C244.84 372.271 236.556 383.788 230.051 389.143L221.328 396.316L212.206 403.133C201.84 410.871 190.14 416.087 180.484 424.626L171.5 432.574L143.583 448.233L124.104 458.248L100.271 469.415C93.0925 472.783 85.4801 472.773 77.7939 472.845C65.3026 472.957 53.616 469.492 45.4326 460.368L34.9268 448.654L27.3125 440.721L13.457 425.201C9.89455 421.21 3.98129 414.754 0 411.341V24C1.17262e-05 10.7452 10.7452 5.15407e-07 24 0H598.423L616.114 34.1768ZM1256 0C1269.25 8.24649e-06 1280 10.7452 1280 24V140.517L1249.25 154.387L1228.76 166.688L1207.93 175.402L1193.78 179.077C1173.18 176.73 1159.82 168.703 1143.25 157.627L1110.13 135.482L1102.12 130.241L1102.14 130.259L1088.46 121.006L1081.62 116.543C1078.01 114.185 1074.64 112.53 1069.88 112.554L1081.93 125.454L1101.09 144.045L1126.2 170.097C1130.11 174.163 1133.11 177.95 1136.13 182.752C1139.87 188.683 1144.63 194.836 1144.5 202.335C1144.4 208.129 1139.68 212.275 1135.6 215.668C1131.83 218.801 1128.2 222.359 1123.95 224.566L1115.56 228.93L1045.67 239.4L981.075 256.971L918.298 264.623L877.327 263.767C823.531 241.777 793.536 209.975 757.229 167.526L684.604 82.6484L666.97 62.4355L667.017 62.498L637.1 27.1523L622.015 9.9209C618.799 6.24344 615.603 2.90639 612.089 0H1256ZM1280 213.354L1252.73 207.602C1246 206.182 1236.52 201.913 1236 194.797C1235.93 187.425 1241.34 181.585 1245.45 177.256L1254.28 167.945L1267.24 155.699L1274.8 149.58L1280 144.936V213.354Z" fill="#F7F3E7"/>
</svg>
