<svg viewBox="0 0 864 1302" fill="none" xmlns="http://www.w3.org/2000/svg" preserveAspectRatio="none">
<path id="Subtract" d="M864 1278C864 1291.25 853.255 1302 840 1302H24C10.7452 1302 0 1291.25 0 1278V1072.65L22.6514 1056.31C28.8374 1051.84 39.3863 1047.14 45.5059 1051.69C51.4906 1056.79 52.1342 1065.26 52.5361 1071.62L53.4082 1085.29L53.5498 1104.36L52.8086 1114.76L52.4893 1129.28C53.1161 1129.76 55.737 1129.28 55.7852 1128.58L55.9639 1126.01L68.0938 1090.69L73.5596 1065.47L82.1592 1042.49L89.8145 1028.44C107.149 1013.38 123.635 1008.15 144.971 1002.46L187.638 991.078L197.858 988.25L197.829 988.257L215.538 983.629L224.261 981.199C228.867 979.919 232.724 978.345 236.27 974.473L216.853 975.223L187.524 977.762L147.718 979.92C141.514 980.248 136.219 980.028 130.084 979.126C122.505 978.013 113.983 977.57 108.048 972.219C103.457 968.09 103.66 961.363 103.986 955.686C104.293 950.437 104.149 945.007 105.557 940.02L109.991 924.306L112.053 915.726L115.353 904.622L118.186 894.453C118.49 894.056 118.804 893.662 119.128 893.271C124.237 887.114 127.505 879.787 132.125 873.351L157.443 838.079C162.784 830.64 173.098 821.483 182.107 825.02C191.188 829.265 195.457 839.351 198.568 846.95L205.264 863.28L213.354 886.408L216.816 899.299L222.481 917.052C223.41 917.431 226.258 915.99 226.021 915.12L225.161 911.94L224.591 865.054L220.467 832.623L220.921 801.894L223.987 782.325C237.891 758.369 254.894 746.64 277.348 732.772L322.246 705.028L327.936 701.433C329.371 701.328 331.752 700.065 332.599 699.512L348.276 689.192L460.773 625.386L507.602 601.199L564.848 574.466C582.092 566.403 600.212 567.279 618.512 567.946C648.251 569.044 675.909 579.469 694.969 604.396L719.438 636.401L737.196 658.133L769.464 700.528C782.882 718.162 810.638 753.457 810.685 743.042L810.703 736.699L779.17 670.27C763.527 626.548 743.087 565.185 756.136 523.633C761.627 506.126 784.51 489.975 800.18 484.321L821.188 476.752L842.732 470.14C849.764 467.986 856.875 466.306 864 464.779V1278ZM0 1000.29C6.47692 1007.09 11.6994 1014.49 13.5664 1022.14C15.2505 1029.02 10.7754 1039.37 6.61719 1044.71L1.04004 1051.86L0 1053.08V1000.29ZM840 0C853.255 6.18487e-06 864 10.7452 864 24V109.098L856.539 120.206L845.93 140.986L833.192 158.844L823.372 169.047C805.104 177.272 789.884 177.014 770.444 175.72L731.565 173.141L722.228 172.612L722.255 172.616L706.142 171.459L698.169 171.022C693.96 170.789 690.315 171.04 686.391 173.426L703.034 178.535L728.506 185.006L762.772 194.934C768.111 196.488 772.549 198.258 777.538 200.885C783.702 204.129 790.823 207.057 794.588 213.577C797.503 218.612 795.737 224.529 794.115 229.477C792.612 234.048 791.446 238.915 789.071 242.928L784.376 250.858L731.921 294.632L687.514 341.887L639.488 379.698L605.12 399.341C549.207 407.176 507.929 394.728 455.921 376.256L351.902 339.337L326.853 330.712L326.924 330.743L283.878 315.206L262.479 307.881C251.183 304.007 241.065 301.863 228.592 305.196L270.133 331.69L334.716 368.638L420.688 421.6C434.077 429.874 444.848 438.024 456.483 448.89C470.859 462.309 488.082 475.625 493.478 495.934C497.666 511.622 488.441 526.045 480.331 537.996C472.824 549.035 466.019 561.122 456.554 569.995L426.733 597.949L411.201 613.737L389.781 633.247L367.587 654.196L346.479 673.782L339.617 680.067L316.58 688.879L271.174 704.477C264.093 706.897 257.844 708.358 250.332 709.261C241.053 710.378 230.957 712.618 221.829 708.049C214.772 704.527 212.213 696.285 210.232 689.277C208.408 682.799 205.985 676.246 205.549 669.726L204.177 649.183L203.008 638.081L202.232 623.512L201.157 608.174L200.261 593.699L199.348 577.388L196.008 577.287C195.387 577.274 194.986 579.325 194.921 579.982L194.024 589.354L183.808 653.246L178.678 679.066L171.359 709.706C169.159 718.939 163.39 725.587 157.645 732.372C148.304 743.394 136.14 750.571 121.2 749.722L102.02 748.631L88.6523 748.327L63.2871 746.826C52.7384 746.2 31.3538 745.292 35.1875 748.712L37.5273 750.791L71.5547 760.425C92.4146 768.721 121.236 780.945 132.674 799.513C137.494 807.333 136.589 821.366 133.971 829.209L130.456 839.721L126.427 850.125C121.844 861.94 114.853 872.249 111.272 884.4L107.942 895.71L92.9219 923.072L81.9697 941.38L68.0078 962.846C63.8044 969.315 57.4969 973.093 51.1699 976.979C40.885 983.289 29.4166 986.118 17.9238 982.337L3.16797 977.482L0 976.557V24C0 10.7452 10.7452 9.66383e-08 24 0H840ZM843.947 226.272C850.72 224.584 857.572 224.41 864 226.459V432.203L781.862 435.706C763.103 436.505 734.913 431.515 728.085 412.689C722.253 392.862 731.991 373.395 739.472 358.897L755.536 327.724L780.185 285.8L795.35 264.105L798.422 259.212L809.394 248.737L826.319 233.819C831.417 229.322 837.661 227.842 843.947 226.272ZM864 153.396C863.923 152.237 863.933 151.078 864 149.934V153.396Z" fill="#F7F3E7"/>
</svg>
